<svg xmlns="http://www.w3.org/2000/svg" viewBox="0 0 64 64">
  <rect width="64" height="64" rx="14" fill="#f7931a" />
  <circle cx="32" cy="32" r="24" fill="#f7931a" />
  <path
    d="M27 13v38M36 13v38"
    fill="none"
    stroke="#fff"
    stroke-width="4.4"
    stroke-linecap="round"
  />
  <path
    d="M22 18h13c7 0 11 3 11 8 0 4-2.4 6.5-6.2 7.4C44.4 34.2 48 37 48 42c0 6-4.8 9-12.5 9H22V18Zm8 7v6h5c2.5 0 4-1.1 4-3s-1.5-3-4-3h-5Zm0 13v6h6c2.7 0 4.3-1.1 4.3-3s-1.6-3-4.3-3h-6Z"
    fill="#fff"
  />
</svg>
